# xmcd
#
# Track frame offsets: 
#        150
#        22019
#        34693
#        61859
#        75374
#        88230
#        106960
#        125695
#        143259
#        161427
#        185770
#        203334
#        219836
#        235388
#        251202
#        265363
#        284020
#        300552
#        313462
#
# Disc length: 4454 seconds
#
# Revision: 0
# Processed by: cddbd v1.5.1PL0 Copyright (c) Steve Scherf et al.
# Submitted via: ExactAudioCopy v0.95a5
#
DISCID=0e116413
DTITLE=Various Artist - Remix Poison
DYEAR=2004
DGENRE=Techno
TTITLE0=Jacek Sienkiewicz - Truly Words 
TTITLE1=Elton D - Get Points 
TTITLE2=Men of Noise - Stop the violence 
TTITLE3=Bio Booster - Funky Moment 
TTITLE4=Elton D - Just Lay 
TTITLE5=Bio Booster - Gotta Go (Davide Squillace Remix) 
TTITLE6=Alek Biotic - Funk Matter (Valentino Kanzyani Remix)
TTITLE7=Michel Palazzo - Santa Maria (Andre Dazzo Remix) 
TTITLE8=DJ Lucca - Fast Life (Christian Fischer Remix) 
TTITLE9=Martyn Hare - To The Grind 
TTITLE10=Flash Golden - Arrival 
TTITLE11=Philip Braunstein - Krystal (Redhead remix)
TTITLE12=Martyn Hare - untitled 
TTITLE13=Yutanie - La Fiesta (Freak remix) 
TTITLE14=Elton D - Second Session  
TTITLE15=Machno Macaka - Biroska ( Fischer Murphy remix )
TTITLE16=DJ Lucca - Mirage 01 (Umek remix) 
TTITLE17=Freak - Devastion (yutanie remix) 
TTITLE18=Love - Alex Aphex and Sven Dedek 
EXTD=
EXTT0=
EXTT1=
EXTT2=
EXTT3=
EXTT4=
EXTT5=
EXTT6=
EXTT7=
EXTT8=
EXTT9=
EXTT10=
EXTT11=
EXTT12=
EXTT13=
EXTT14=
EXTT15=
EXTT16=
EXTT17=
EXTT18=
PLAYORDER=
